<svg width="20"  viewBox="0 0 40 40" fill="none" xmlns="http://www.w3.org/2000/svg">
<path d="M40 20.0044C40.0008 16.1821 38.9063 12.4396 36.8461 9.22006C34.7859 6.00052 31.8463 3.43877 28.3753 1.83812C24.9043 0.237482 21.0473 -0.335006 17.2611 0.188445C13.4748 0.711895 9.9178 2.30936 7.01127 4.79169C4.10475 7.27402 1.97041 10.5373 0.860989 14.195C-0.248433 17.8527 -0.286478 21.7518 0.751361 25.4305C1.7892 29.1092 3.85945 32.4134 6.71699 34.952C9.57452 37.4906 13.0997 39.1571 16.875 39.7544V25.7844H11.7983V20.0044H16.875V15.596C16.766 14.5673 16.8845 13.5272 17.2221 12.5493C17.5598 11.5715 18.1083 10.6798 18.8288 9.93748C19.5493 9.19517 20.4243 8.62035 21.3916 8.25374C22.359 7.88714 23.3951 7.7377 24.4267 7.81603C25.9267 7.83603 27.4233 7.96603 28.905 8.20603V13.1344H26.385C25.9557 13.0781 25.5192 13.1191 25.1079 13.2543C24.6966 13.3896 24.321 13.6156 24.0089 13.9157C23.6968 14.2158 23.4562 14.5823 23.3049 14.988C23.1537 15.3937 23.0956 15.8282 23.135 16.2594V20.0094H28.6817L27.795 25.7894H23.125V39.7677C27.8307 39.0233 32.1162 36.6235 35.2098 33.0003C38.3035 29.3771 40.0021 24.7686 40 20.0044Z" fill="white
"/>
</svg>
