<svg width="20"  viewBox="0 0 40 40" fill="none" xmlns="http://www.w3.org/2000/svg">
<path d="M32.0603 12.4304C31.6103 12.8805 30.9999 13.1333 30.3634 13.1333C29.7268 13.1333 29.1164 12.8805 28.6663 12.4304C28.2161 11.9803 27.9634 11.3699 27.9634 10.7333C27.9634 10.0968 28.2161 9.48636 28.6663 9.03628C29.1164 8.5862 29.7268 8.33333 30.3634 8.33333C30.9999 8.33333 31.6103 8.5862 32.0603 9.03628C32.5105 9.48636 32.7634 10.0968 32.7634 10.7333C32.7634 11.3699 32.5105 11.9803 32.0603 12.4304Z" fill="white"/>
<path fill-rule="evenodd" clip-rule="evenodd" d="M10 21.0033C10 26.5183 14.485 31.0033 20 31.0033C25.515 31.0033 30 26.5183 30 21.0033C30 15.4883 25.515 11.0033 20 11.0033C14.485 11.0033 10 15.4883 10 21.0033ZM15 21.0033C15 18.245 17.2416 16.0033 20 16.0033C22.7584 16.0033 25 18.245 25 21.0033C25 23.7617 22.7584 26.0033 20 26.0033C17.2416 26.0033 15 23.7617 15 21.0033Z" fill="white"/>
<path fill-rule="evenodd" clip-rule="evenodd" d="M0 30C0 35.14 4.86003 40 10 40H30C35.14 40 40 35.14 40 30V10C40 4.86 35.14 0 30 0H10C4.86003 0 0 4.86 0 10V30ZM5 10C5 7.66335 7.66337 5 10 5H30C32.3366 5 35 7.66335 35 10V30C35 32.3367 32.3366 35 30 35H10C7.61668 35 5 32.3833 5 30V10Z" fill="white"/>
</svg>
