<svg width="28"  viewBox="0 0 40 40" fill="none" xmlns="http://www.w3.org/2000/svg">
<path d="M29.428 27.7614C27.6301 29.5594 23.5724 33.6171 21.4134 35.7761C20.6323 36.5572 19.3684 36.558 18.5874 35.777C16.4638 33.6533 12.4932 29.6828 10.5719 27.7614C5.36488 22.5544 5.36488 14.1122 10.5719 8.90524C15.7789 3.69825 24.2211 3.69825 29.428 8.90524C34.635 14.1122 34.635 22.5544 29.428 27.7614Z" stroke="#16C79A" stroke-width="2" stroke-linecap="round" stroke-linejoin="round"/>
<path d="M25 18.3333C25 21.0948 22.7614 23.3333 20 23.3333C17.2385 23.3333 15 21.0948 15 18.3333C15 15.5719 17.2385 13.3333 20 13.3333C22.7614 13.3333 25 15.5719 25 18.3333Z" stroke="#16C79A" stroke-width="2" stroke-linecap="round" stroke-linejoin="round"/>
</svg>
