<svg width="20"  viewBox="0 0 40 40" fill="none" xmlns="http://www.w3.org/2000/svg">
<path d="M40 7.08325C38.5 7.83325 37 8.08325 35.25 8.33325C37 7.33325 38.25 5.83325 38.75 3.83325C37.25 4.83325 35.5 5.33325 33.5 5.83325C32 4.33325 29.75 3.33325 27.5 3.33325C23.25 3.33325 19.5 7.08325 19.5 11.5833C19.5 12.3333 19.5 12.8333 19.75 13.3333C13 13.0833 6.75 9.83325 2.75 4.83325C2 6.08325 1.75 7.33325 1.75 9.08325C1.75 11.8333 3.25 14.3333 5.5 15.8333C4.25 15.8333 3 15.3333 1.75 14.8333C1.75 18.8333 4.5 22.0833 8.25 22.8333C7.5 23.0833 6.75 23.0833 6 23.0833C5.5 23.0833 5 23.0833 4.5 22.8333C5.5 26.0833 8.5 28.5833 12.25 28.5833C9.5 30.8333 6 32.0833 2 32.0833H0C3.75 34.3333 8 35.8333 12.5 35.8333C27.5 35.8333 35.75 23.3333 35.75 12.5833V11.5833C37.5 10.3333 39 8.83325 40 7.08325Z" fill="white"/>
</svg>
