<svg width="20"  viewBox="0 0 40 40" fill="none" xmlns="http://www.w3.org/2000/svg">
<path d="M27.6673 23.3334C27.334 23.1667 25.1673 22.1667 24.834 22.0001C24.5007 21.8334 24.1673 21.8334 23.834 22.1667C23.5007 22.5001 22.834 23.5001 22.5007 23.8334C22.334 24.1667 22.0007 24.1667 21.6673 24.0001C20.5007 23.5001 19.334 22.8334 18.334 22.0001C17.5007 21.1667 16.6673 20.1667 16.0007 19.1667C15.834 18.8334 16.0007 18.5001 16.1673 18.3334C16.334 18.1667 16.5007 17.8334 16.834 17.6667C17.0007 17.5001 17.1673 17.1667 17.1673 17.0001C17.334 16.8334 17.334 16.5001 17.1673 16.3334C17.0007 16.1667 16.1673 14.1667 15.834 13.3334C15.6673 12.1667 15.334 12.1667 15.0007 12.1667C14.834 12.1667 14.5007 12.1667 14.1673 12.1667C13.834 12.1667 13.334 12.5001 13.1673 12.6667C12.1673 13.6667 11.6673 14.8334 11.6673 16.1667C11.834 17.6667 12.334 19.1667 13.334 20.5001C15.1673 23.1667 17.5007 25.3334 20.334 26.6667C21.1673 27.0001 21.834 27.3334 22.6673 27.5001C23.5007 27.8334 24.334 27.8334 25.334 27.6667C26.5007 27.5001 27.5007 26.6667 28.1673 25.6667C28.5007 25.0001 28.5007 24.3334 28.334 23.6667C28.334 23.6667 28.0007 23.5001 27.6673 23.3334ZM31.834 8.16675C25.334 1.66675 14.834 1.66675 8.33398 8.16675C3.00065 13.5001 2.00065 21.6667 5.66732 28.1667L3.33398 36.6667L12.1673 34.3334C14.6673 35.6667 17.334 36.3334 20.0007 36.3334C29.1673 36.3334 36.5007 29.0001 36.5007 19.8334C36.6673 15.5001 34.834 11.3334 31.834 8.16675ZM27.334 31.5001C25.1673 32.8334 22.6673 33.6667 20.0007 33.6667C17.5007 33.6667 15.1673 33.0001 13.0007 31.8334L12.5007 31.5001L7.33398 32.8334L8.66732 27.8334L8.33398 27.3334C4.33398 20.6667 6.33398 12.3334 12.834 8.16675C19.334 4.00008 27.6673 6.16675 31.6673 12.5001C35.6673 19.0001 33.834 27.5001 27.334 31.5001Z" fill="white"/>
</svg>
